<svg xmlns="http://www.w3.org/2000/svg" viewBox="0 0 235.9 235.9">
    <style>.a{fill:#FEDE94;}</style>
    <path d="M224.2 20.6c15.6 15.6 15.6 40.9 0 56.5L88 213.4c-1 1-2.2 1.7-3.5 2.1l-74.3 20.2c-0.7 0.2-1.4 0.3-2.1 0.3 -2.1 0-4.1-0.8-5.7-2.3 -2-2-2.8-5-2.1-7.8l20.2-74.3c0.4-1.4 1.1-2.6 2.1-3.6l136.3-136.3C166.4 4.2 176.4 0 187.1 0c10.6 0 20.7 4.2 28.2 11.7L224.2 20.6zM216.6 60.7c5.3-9.2 4.1-21-3.7-28.8l-8.9-8.9c-4.5-4.5-10.5-7-16.9-7 -4.3 0-8.4 1.1-11.9 3.2L216.6 60.7zM201 77.7l5-5 -42.7-42.7 -5 5L201 77.7zM80.9 197.7l108.8-108.7 -5.8-5.8L77.9 189.1 80.9 197.7zM65.2 179.1L172.5 71.8l-8.3-8.3 -107.8 107.8 1.9 5.4L65.2 179.1zM47.4 157.7L152.9 52.2l-5.9-5.9L38.6 154.6 47.4 157.7zM66 203.8l-2.9-8.4 -13.8-4.8c-2.3-0.8-4.1-2.6-4.9-4.9l-4.8-13.7 -7.3-2.6 -11.2 41.1 4.4 4.4L66 203.8z" fill="#2D213F"/>
    <path d="M212.9 32c7.8 7.8 9 19.6 3.7 28.8L175.2 19.3c3.6-2.1 7.7-3.2 11.9-3.2 6.4 0 12.4 2.5 16.9 7L212.9 32z" fill="#EAEEEF"/>
    <path d="M206 72.7l-5 5 -42.7-42.7 5-5L206 72.7z" class="a"/>
    <path d="M189.7 89L80.9 197.7l-3-8.6L183.8 83.2 189.7 89z" class="a"/>
    <path d="M172.5 71.8L65.2 179.1l-6.9-2.4 -1.9-5.4 107.8-107.8L172.5 71.8z" fill="#F47C6D"/>
    <path d="M152.9 52.2L47.4 157.7l-8.8-3.1L147 46.3 152.9 52.2z" class="a"/>
    <path d="M63.1 195.4l2.9 8.4L25.5 214.8l-4.4-4.4 11.2-41.1 7.3 2.6 4.8 13.7c0.8 2.3 2.6 4.1 4.9 4.9L63.1 195.4z" class="a"/>
    <path d="M198.2 18.7c-3.4-1.8-7.1-2.7-11-2.7 -4.3 0-8.4 1.1-11.9 3.2l30.5 30.5C193.8 33 195.6 23.3 198.2 18.7z" fill="#C5CBCF"/>
</svg>
